<?xml version="1.0" encoding="UTF-8"?><!DOCTYPE svg PUBLIC "-//W3C//DTD SVG 1.1//EN" "http://www.w3.org/Graphics/SVG/1.1/DTD/svg11.dtd"><svg xmlns="http://www.w3.org/2000/svg" xmlns:xlink="http://www.w3.org/1999/xlink"><symbol id="icon-cart" viewBox="264.205 370.961 20.294 18.849"><path d="M283.75 378.19h-3.151l-3.407-6.814a.75.75 0 10-1.341.671l3.071 6.143h-9.138l3.072-6.143a.75.75 0 00-1.341-.671l-3.407 6.814h-3.151a.75.75 0 000 1.5h.157l.855 2.991a.737.737 0 00-.316.595c0 .396.309.71.697.739l1.656 5.795h12.697l1.656-5.795a.745.745 0 00.698-.739.738.738 0 00-.316-.596l.854-2.991h.157a.75.75 0 10-.002-1.499zm-4.181 10.121h-10.433l-1.224-4.284h12.881l-1.224 4.284zm1.653-5.785h-13.739l-.81-2.836h15.359l-.81 2.836z"/></symbol><symbol id="icon-menu-close"><path fill="#231F20" d="M20.513 1.414L19.099 0l-8.843 8.842L1.414 0 0 1.414l8.842 8.842L0 19.098l1.414 1.414 8.842-8.842 8.843 8.842 1.414-1.414-8.842-8.842z"/></symbol></svg>